<?xml version="1.0" standalone="no"?>
<!DOCTYPE svg PUBLIC "-//W3C//DTD SVG 20010904//EN"
 "http://www.w3.org/TR/2001/REC-SVG-20010904/DTD/svg10.dtd">
<svg version="1.0" xmlns="http://www.w3.org/2000/svg"
 width="500.000000pt" height="500.000000pt" viewBox="0 0 500.000000 500.000000"
 preserveAspectRatio="xMidYMid meet">

<g transform="translate(0.000000,500.000000) scale(0.100000,-0.100000)"
fill="#000000" stroke="none">
<path d="M2925 3796 c-97 -43 -124 -171 -54 -251 74 -84 213 -64 259 38 35 76
19 144 -44 192 -44 33 -115 43 -161 21z"/>
<path d="M2497 3550 c66 -97 124 -214 159 -320 25 -78 28 -98 28 -240 1 -145
-1 -161 -28 -244 -66 -200 -226 -367 -444 -462 -80 -35 -101 -49 -62 -40 14 2
50 8 80 11 152 17 334 82 477 171 100 62 242 204 316 315 123 186 223 455 271
728 l6 34 -50 -47 c-126 -118 -287 -127 -498 -26 -82 39 -177 98 -261 161
l-44 33 50 -74z"/>
<path d="M1822 2969 c-46 -25 -83 -50 -83 -55 0 -5 25 -14 55 -21 99 -22 194
-78 279 -164 64 -65 76 -74 71 -51 -12 48 -41 121 -67 165 -26 44 -127 152
-156 166 -11 5 -43 -8 -99 -40z"/>
<path d="M1347 2034 c-4 -4 -7 -25 -7 -46 l0 -38 55 0 55 0 0 -180 0 -180 50
0 50 0 0 180 0 180 56 0 55 0 -3 43 -3 42 -151 3 c-82 1 -153 -1 -157 -4z"/>
<path d="M2030 1816 l0 -226 100 0 c63 0 113 5 134 14 79 33 103 130 47 187
-16 16 -37 29 -46 29 -14 0 -12 6 9 31 18 22 26 42 26 70 0 83 -38 108 -176
116 l-94 6 0 -227z m144 134 c50 -19 27 -90 -28 -90 -12 0 -16 11 -16 50 0 53
3 56 44 40z m44 -192 c7 -7 12 -24 12 -40 0 -32 -24 -48 -69 -48 -30 0 -31 1
-31 50 l0 50 38 0 c21 0 43 -5 50 -12z"/>
<path d="M1680 1775 c0 -125 13 -157 74 -180 32 -12 61 -16 94 -12 109 13 132
46 132 192 l0 96 -47 -3 -48 -3 -3 -89 c-2 -50 -8 -96 -14 -103 -6 -7 -23 -13
-38 -13 -15 0 -32 6 -38 13 -6 7 -12 53 -14 103 l-3 89 -47 3 -48 3 0 -96z"/>
<path d="M2416 1849 c-82 -64 -73 -195 16 -249 41 -25 74 -25 121 -1 29 15 37
16 37 5 0 -10 13 -14 45 -14 l45 0 0 140 0 140 -44 0 c-24 0 -46 -5 -48 -11
-3 -9 -9 -9 -25 0 -36 19 -117 14 -147 -10z m158 -81 c23 -32 20 -55 -10 -84
-19 -20 -31 -24 -52 -19 -78 18 -66 125 14 125 23 0 38 -7 48 -22z"/>
<path d="M2737 1863 c-4 -3 -7 -66 -7 -140 l0 -133 50 0 50 0 0 88 c0 96 12
122 58 122 37 0 52 -36 52 -127 l0 -83 45 0 45 0 0 109 c0 100 -2 112 -23 137
-30 34 -113 46 -152 20 -22 -14 -25 -15 -25 -1 0 11 -11 15 -43 15 -24 0 -47
-3 -50 -7z"/>
<path d="M3132 1850 c-80 -49 -95 -150 -31 -216 39 -40 93 -59 141 -50 55 11
63 19 49 54 -11 27 -16 29 -50 25 -32 -4 -41 -1 -59 22 -29 36 -28 60 4 91 20
21 31 25 58 20 30 -6 35 -4 46 25 17 40 4 49 -70 49 -37 0 -65 -6 -88 -20z"/>
<path d="M3390 1851 c-19 -10 -43 -32 -53 -49 -25 -42 -24 -117 0 -151 25 -35
99 -71 143 -71 45 0 118 37 144 73 46 63 16 166 -58 201 -46 22 -133 21 -176
-3z m127 -69 c19 -12 31 -55 22 -80 -22 -59 -111 -47 -117 17 -2 21 3 40 14
52 17 19 59 25 81 11z"/>
</g>
</svg>
